<svg id="Layer_1" data-name="Layer 1" xmlns="http://www.w3.org/2000/svg" width="134" height="64" viewBox="0 0 134 64"><defs><style>.cls-1{fill:#fc121b;}.cls-2{fill:#0a3e86;}.cls-3{fill:#595959;}</style></defs><title>logo</title><path class="cls-1" d="M52.39,0l-.94,0A77,77,0,0,0,29.32,5.12,73.62,73.62,0,0,0,6.75,18.34C6,19,4,21.09,3.38,21.76a29.32,29.32,0,0,0-2.54,3.4A13.05,13.05,0,0,0,0,26.67a11.15,11.15,0,0,0,1-.9,51.93,51.93,0,0,1,8.7-6.9C20.14,12.05,34,7.19,45.68,6.21A38.37,38.37,0,0,1,50.07,6a31.51,31.51,0,0,1,4.39.19A22.6,22.6,0,0,1,63.25,8.8a9.33,9.33,0,0,1,3.91,4.06c1.16,2.48,1,5.35-.56,8.6a2.31,2.31,0,0,0-.23.57,26,26,0,0,0,1.74-2,18.52,18.52,0,0,0,4.17-8.24,11.3,11.3,0,0,0,.08-2.46c-.32-3-2.15-5.4-5.35-7A25.43,25.43,0,0,0,56.93,0C56.22,0,52.93,0,52.39,0Z" transform="translate(0 0)"/><path class="cls-2" d="M22.72,16.86l-.58.07a14.09,14.09,0,0,0-3.84,1,10,10,0,0,0-4.67,3.81,8.79,8.79,0,0,0-1.27,4.07c-.08,2.16.93,3.73,3.12,4.86a20.4,20.4,0,0,0,3.95,1.44l1.72.52a3.9,3.9,0,0,1,2.28,1.46,2.14,2.14,0,0,1-.6,2.37,4.54,4.54,0,0,1-2.71,1.18,10.75,10.75,0,0,1-2.21-.06A2.58,2.58,0,0,1,16,36.25a2.72,2.72,0,0,1-.23-1.5c0-.35,0-.7,0-.77l0-.13h-3l-3,0,0,.27a7.45,7.45,0,0,0,.79,5.64A6.47,6.47,0,0,0,12,41.24a10.17,10.17,0,0,0,5.84,1.48,15.79,15.79,0,0,0,5.55-.92,12.7,12.7,0,0,0,2.24-1.13,9.9,9.9,0,0,0,4.21-6.49,5.64,5.64,0,0,0-.34-3.57,4.1,4.1,0,0,0-1-1.33c-1.1-1.05-2.54-1.7-5.83-2.61-2.32-.64-3.14-1-3.65-1.51a1.15,1.15,0,0,1-.35-.76,2.44,2.44,0,0,1,1.68-2.2,5.47,5.47,0,0,1,3.23-.09,2.16,2.16,0,0,1,1.54,1.42,3,3,0,0,1,0,1.11l0,.26h6l0-.24a6.85,6.85,0,0,0-.38-4.25,4.77,4.77,0,0,0-1.08-1.48A7.9,7.9,0,0,0,25.33,17,16.77,16.77,0,0,0,22.72,16.86Zm12.75.53S34.23,23,32.7,29.76s-2.77,12.37-2.77,12.37,2.86,0,6.34,0c6.9,0,6.53,0,7.87-.24a8.88,8.88,0,0,0,7.22-6,11.6,11.6,0,0,0,.52-2,9.13,9.13,0,0,0,0-2.09,4,4,0,0,0-2.5-3.18l-.21-.09.17-.09a10.13,10.13,0,0,0,1.18-.76,9,9,0,0,0,1.36-1.33,7.12,7.12,0,0,0,1.46-3.22c.49-2.92-.67-4.75-3.53-5.49a13.39,13.39,0,0,0-1.89-.3C47.45,17.36,35.47,17.34,35.47,17.39Zm10.24,5.07A1.47,1.47,0,0,1,47,24.07,3,3,0,0,1,44.76,27a11.84,11.84,0,0,1-2.84.11H39.39s.21-1,.49-2.24.52-2.29.52-2.35l0-.11h2.51A23,23,0,0,1,45.71,22.46Zm-1.83,8.89a2,2,0,0,1,1.91,1.33,3.18,3.18,0,0,1,0,1.5,3.23,3.23,0,0,1-2.64,2.66,16.9,16.9,0,0,1-3.16.08,15.51,15.51,0,0,1-2.8,0s.28-1.28.62-2.81.63-2.77.63-2.77S43.62,31.33,43.88,31.35ZM57.34,17.56c0,.11-1.27,5.66-2.78,12.37l-2.73,12.2s1.36,0,3,0l3,0,2.75-12.31c1.5-6.77,2.77-12.35,2.77-12.37s-.15-.06-3-.06h-3Z" transform="translate(0 0)"/><path class="cls-3" d="M78.17,23.09c0,.18-3.66,19-3.66,19s8.3,0,8.88,0c2.45-.26,4-.93,5.14-2.28a7,7,0,0,0,1.59-3.16,5.88,5.88,0,0,0,0-2,3.58,3.58,0,0,0-2-2.44,3.47,3.47,0,0,0-.48-.22l-.19-.06s.13-.11.34-.22a6.44,6.44,0,0,0,2.61-2.59A4.43,4.43,0,0,0,90.94,27a3.16,3.16,0,0,0-.11-1,7.25,7.25,0,0,0-.28-.78,4,4,0,0,0-3.22-2.14c-.48-.09-.56-.09-4.8-.11l-4.32,0Zm7.65,2.25c1.33.13,1.92.41,2.26,1.13a2.5,2.5,0,0,1,.24,1.26,3.23,3.23,0,0,1-2.2,2.94c-.77.29-1.55.33-4.64.33-2,0-2.22,0-2.22-.07s.24-1.32.54-2.85.54-2.81.54-2.83S85.28,25.29,85.82,25.34Zm-.75,8.08a3.53,3.53,0,0,1,1.27.39,2.38,2.38,0,0,1,1.18,2.24,4,4,0,0,1-2,3.25,5.22,5.22,0,0,1-2.41.52c-.82,0-5.53.07-5.53,0s.28-1.46.63-3.22.62-3.22.62-3.25,1.14,0,3,0A28.94,28.94,0,0,1,85.07,33.42Zm37.11-.92c-1,5.23-1.83,9.54-1.83,9.56s.06.07,1.18.07h1.21l.51-2.68c.28-1.46.52-2.7.54-2.77a19.46,19.46,0,0,1,1.95-1.59s.76,1.62,1.64,3.53L129,42.13h1.46a11.8,11.8,0,0,0,1.46,0s-.92-2-2.06-4.34-2.07-4.31-2.09-4.33,1.4-1.18,3.12-2.57,3.14-2.57,3.14-2.6a12.73,12.73,0,0,0-1.53,0H131L127.66,31c-1.81,1.52-3.29,2.76-3.31,2.76s2-10.56,2-10.71-.07-.07-1.18-.07H124ZM99.3,28a13.72,13.72,0,0,0-2.13.35,5.83,5.83,0,0,0-3.42,2.4A10.23,10.23,0,0,0,93,32.18c0,.06,0,.06,1.1.21.51.07,1,.13,1,.16s.13,0,.28-.31a4.05,4.05,0,0,1,1.68-1.87,6,6,0,0,1,3.93-.2,1.77,1.77,0,0,1,1.12,1,3.69,3.69,0,0,1,0,1.7l-.09.46-.45.13a30.07,30.07,0,0,1-3.87.67,16.28,16.28,0,0,0-2.69.5,5.92,5.92,0,0,0-2.25,1.31,4.66,4.66,0,0,0-1.06,1.44,3.87,3.87,0,0,0-.1,3.33A3.13,3.13,0,0,0,94,42.28a10.36,10.36,0,0,0,2.32.09,9.28,9.28,0,0,0,4.22-1.68l.36-.26v.44A4.13,4.13,0,0,0,101,42l0,.15h1.25a10.29,10.29,0,0,0,1.25,0s0-.13-.09-.29a4.56,4.56,0,0,1-.19-1.26,40.38,40.38,0,0,1,.88-5.47c.67-3.44.71-3.79.65-4.44a2.34,2.34,0,0,0-1-1.85,5.67,5.67,0,0,0-3-.85C100.05,27.93,100.07,27.93,99.3,28Zm2.39,7.3c0,.11-.26,1.28-.35,1.65a4.46,4.46,0,0,1-2.49,3,5.08,5.08,0,0,1-2.49.59,2.53,2.53,0,0,1-2-.63A1.46,1.46,0,0,1,94,39a2.41,2.41,0,0,1,1.37-2.27,8.35,8.35,0,0,1,2.58-.63,22.69,22.69,0,0,0,3.57-.76C101.67,35.2,101.69,35.2,101.69,35.27ZM114.57,28a6.09,6.09,0,0,0-3.85,1.81c-.28.26-.35.33-.35.24s.09-.44.17-.87.16-.81.18-.83,0-.07-1.08-.07a6.51,6.51,0,0,0-1.09.05s-.59,3.11-1.31,6.88-1.32,6.86-1.32,6.91.07.06,1.21.06c.66,0,1.2,0,1.2,0s1.51-7.84,1.59-8.21a5.07,5.07,0,0,1,1.66-3,4,4,0,0,1,4.25-.53,2,2,0,0,1,.82,2c0,.56-.11.95-1,5.44-.43,2.29-.79,4.18-.79,4.23s.06.06,1.2.06c.67,0,1.21,0,1.21,0s.38-2.07.88-4.57.92-4.82,1-5.12a3.91,3.91,0,0,0-.64-3.31,2.8,2.8,0,0,0-.9-.66A6,6,0,0,0,114.57,28ZM8.34,54.41a2.69,2.69,0,0,0-2.6,2,1.46,1.46,0,0,0,.75,1.7,6.59,6.59,0,0,0,1.49.5c1.24.33,1.59.5,1.72.94a1.29,1.29,0,0,1-.46,1.13,2.77,2.77,0,0,1-2.68.24,1.19,1.19,0,0,1-.73-1.17c0-.31,0-.31-.11-.29a1.7,1.7,0,0,1-.47,0l-.39,0,0,.13a2.15,2.15,0,0,0,0,.83,2,2,0,0,0,1.63,1.48,5.86,5.86,0,0,0,2,0A3.25,3.25,0,0,0,10.13,61a2.13,2.13,0,0,0,.64-1.54,1.51,1.51,0,0,0-.34-1c-.37-.39-.71-.54-2-.87s-1.48-.44-1.61-.7a.94.94,0,0,1,.3-1.11,2.14,2.14,0,0,1,1.63-.45c1,0,1.33.34,1.4,1.11l0,.28.26,0c.15,0,.36,0,.47,0l.22,0,0-.3C11.16,55,10.1,54.26,8.34,54.41Zm30.4.16c0,.06-.17.91-.17,1s.19,0,.47,0h.47l.09-.5a3.24,3.24,0,0,1,.11-.53,2,2,0,0,0-.48,0C38.89,54.52,38.76,54.54,38.74,54.57Zm9.52,0s-.32,1.66-.68,3.66-.69,3.64-.69,3.66,3.57,0,3.85,0a3.73,3.73,0,0,0,1-.39A2.75,2.75,0,0,0,52.84,60a2,2,0,0,0,0-1.29,1.75,1.75,0,0,0-.67-.65L51.94,58l.22-.13a2.18,2.18,0,0,0,1-1.22,1.81,1.81,0,0,0-.06-1.22A1.48,1.48,0,0,0,52,54.57a11.74,11.74,0,0,0-2-.07Zm3.38,1a.83.83,0,0,1,.49.44,1,1,0,0,1,0,.32A1.27,1.27,0,0,1,51,57.53c-.15,0-.67,0-1.27,0l-1,0L49,56.48c.11-.59.22-1.06.22-1.09h1.14A10.3,10.3,0,0,1,51.64,55.5Zm-.65,3a.91.91,0,0,1,.84,1.16,1.4,1.4,0,0,1-.71,1c-.38.22-.56.24-1.87.24h-1.2l0-.09s.11-.59.24-1.17.21-1.11.21-1.14A16.46,16.46,0,0,1,51,58.55Zm14-3.94c0,.2-.17.89-.17.91a1.1,1.1,0,0,0,.47,0h.47l.09-.46a4,4,0,0,1,.11-.52c0-.07,0-.07-.45-.07S65,54.52,65,54.61Zm25.22-.07s-.32,1.66-.69,3.64-.69,3.64-.69,3.66a1.74,1.74,0,0,0,.52,0h.51l.69-3.61c.39-2,.71-3.64.71-3.68s0-.07-.49-.07S90.21,54.54,90.21,54.54Zm-77,.42-.47.26-.11.61c-.06.35-.13.63-.13.65s-.13.05-.34.05h-.32l0,.26c0,.15-.06.3-.06.37s0,.09.32.11l.35,0-.31,1.59c-.17.87-.32,1.79-.36,2,0,.44,0,.44,0,.64a.82.82,0,0,0,.32.32c.22.11.26.11.69.11a3.13,3.13,0,0,0,.58,0l.13,0,0-.41,0-.41-.28,0c-.31,0-.43,0-.52-.2s0-.24.28-1.85l.34-1.76h.93l0-.31c0-.15.07-.32.07-.37s0-.06-.46-.06-.45,0-.45-.09.09-.41.17-.83.15-.78.18-.83,0-.08,0-.08A1.83,1.83,0,0,0,13.24,55Zm12.09,0-.48.26-.08.46c-.05.24-.11.54-.13.65l-.05.22h-.66l-.05.19a3.12,3.12,0,0,0-.06.37l0,.16h.32c.19,0,.32,0,.32,0s-.15.78-.32,1.7a12.45,12.45,0,0,0-.32,2.07c0,.39,0,.41.11.54.21.29.66.4,1.29.33.19,0,.36,0,.36-.07s0-.19,0-.43l0-.41-.24,0c-.41,0-.6-.07-.6-.33,0-.06.15-.87.32-1.76s.32-1.68.32-1.68.22,0,.45,0c.52,0,.46.06.56-.46l.07-.26h-.45c-.26,0-.46,0-.46,0s.09-.44.18-.94a5.69,5.69,0,0,0,.13-.89A2.26,2.26,0,0,0,25.33,55ZM119,55c-.26.13-.5.28-.5.33s-.06.32-.13.67l-.1.59H118c-.36,0-.34,0-.41.37s-.08.35.28.35a3,3,0,0,1,.33,0s-.16.76-.33,1.68c-.34,1.8-.4,2.33-.3,2.54a.73.73,0,0,0,.47.37,3.17,3.17,0,0,0,1,0l.23,0v-.32c0-.18,0-.37,0-.44s0-.08-.21-.06c-.41,0-.6-.07-.6-.35,0-.11.54-3,.62-3.38,0-.08,0-.08.47-.08H120l0-.2a2.83,2.83,0,0,0,.06-.37l0-.15h-.45c-.32,0-.45,0-.45-.05s.07-.41.15-.87c.17-.87.17-.93.13-.93S119.27,54.81,119,55ZM16.88,56.5a1.51,1.51,0,0,0-.52.4l-.3.3.06-.35.07-.35h-.43c-.41,0-.43,0-.45.09s-.24,1.22-.5,2.59-.49,2.55-.49,2.6,0,.08.45.08.47,0,.49-.06.13-.7.28-1.46a9.43,9.43,0,0,1,.54-2.2,1.24,1.24,0,0,1,.56-.66,1.06,1.06,0,0,1,.95,0,.7.7,0,0,0,.19.09l.24-.44c.25-.45.25-.45-.07-.61A2,2,0,0,0,16.88,56.5Zm3.41,0a2.47,2.47,0,0,0-1.44.74,3,3,0,0,0-.51.83,2.82,2.82,0,0,0,.79.13c.09,0,.13,0,.2-.19a1.4,1.4,0,0,1,1.14-.79,1.62,1.62,0,0,1,1.16.2.45.45,0,0,1,.17.17,1,1,0,0,1,0,.63l0,.27-.17,0a12,12,0,0,1-1.44.26c-.41.07-.88.13-1,.17A2.18,2.18,0,0,0,17.8,60a1.1,1.1,0,0,0-.13.72c0,.44,0,.46.13.66a1.53,1.53,0,0,0,1.46.61,3.12,3.12,0,0,0,1.89-.61l.18-.11,0,.26c0,.13,0,.28,0,.3a1.49,1.49,0,0,0,.52,0h.47l0-.11c-.11-.48-.07-.79.28-2.68.26-1.35.28-1.72.13-2a1.41,1.41,0,0,0-1-.63A5.9,5.9,0,0,0,20.29,56.48Zm1.38,2.9a4.79,4.79,0,0,1-.3,1,1.44,1.44,0,0,1-.32.37,2,2,0,0,1-1.38.52c-.51,0-.77-.13-.9-.45a.41.41,0,0,1,0-.4A.93.93,0,0,1,19,60c.22-.26.45-.35,1.38-.5a9.63,9.63,0,0,0,1.07-.22C21.71,59.23,21.69,59.23,21.67,59.38Zm7.12-2.9a3.19,3.19,0,0,0-1.72,1.14,4.28,4.28,0,0,0-.76,2.17A1.89,1.89,0,0,0,27.73,62a4.15,4.15,0,0,0,1.57,0,2.67,2.67,0,0,0,1.42-1,1.91,1.91,0,0,0,.39-.68,7.74,7.74,0,0,0-.95-.13s-.06.11-.15.24a2.09,2.09,0,0,1-.77.72,1.26,1.26,0,0,1-.67.11c-.41,0-.45,0-.64-.13a1,1,0,0,1-.52-.57,1.72,1.72,0,0,1-.11-.91l0-.11h2c1.85,0,2,0,2-.07a3.52,3.52,0,0,0,.11-1A1.83,1.83,0,0,0,31,57a1.72,1.72,0,0,0-1.44-.57A2.08,2.08,0,0,0,28.79,56.48Zm1.07.83a1.12,1.12,0,0,1,.65,1.11v.26h-3l0-.08a2.24,2.24,0,0,1,1-1.2A1.51,1.51,0,0,1,29.86,57.31Zm4.43-.83a2.86,2.86,0,0,0-1.87,1.57c-.75,1.5-.52,3.2.54,3.68a2.28,2.28,0,0,0,2.3-.32c.17-.14.19-.14.17-.07a3.06,3.06,0,0,0-.11.46,2,2,0,0,1-.34.85,1.7,1.7,0,0,1-1.53.61c-.58,0-.9-.29-.9-.68,0-.09,0-.17,0-.17a4.19,4.19,0,0,1-.45-.07l-.46,0a1,1,0,0,0,0,.35,1,1,0,0,0,.37.93,2.09,2.09,0,0,0,1.63.42,3,3,0,0,0,.92-.13A2.59,2.59,0,0,0,36,62.58a15.43,15.43,0,0,0,.82-3.48c.25-1.33.47-2.44.47-2.49s0-.08-.41-.08-.45,0-.51.28-.05.28-.31,0A1.38,1.38,0,0,0,35,56.44,3.19,3.19,0,0,0,34.29,56.48Zm1,.85a1,1,0,0,1,.52.59,1.06,1.06,0,0,1,.08.65,3.61,3.61,0,0,1-.34,1.49,2.46,2.46,0,0,1-.88.93,1.07,1.07,0,0,1-.65.13,1.18,1.18,0,0,1-.56-.08,1.33,1.33,0,0,1-.55-1.49,2.83,2.83,0,0,1,.7-1.76A1.4,1.4,0,0,1,35.32,57.33Zm6.84-.85a2.81,2.81,0,0,0-1.31.66,4,4,0,0,0-1.12,2.54c-.13,1.44.51,2.25,1.8,2.34a2.76,2.76,0,0,0,2.63-1.55c.23-.48.23-.44-.17-.5-.56-.09-.54-.09-.69.24a1.6,1.6,0,0,1-1.36,1,1.11,1.11,0,0,1-.79-.2c-.5-.32-.58-1.11-.3-2.15a2.09,2.09,0,0,1,1-1.46,1.19,1.19,0,0,1,1.51.13,1.34,1.34,0,0,1,.23.65c0,.09,0,.09.13.07l.47-.07.35,0,0-.24a1.51,1.51,0,0,0-1-1.37A3.41,3.41,0,0,0,42.16,56.48Zm18.77,0a2.16,2.16,0,0,0-1.59,1.11,1.68,1.68,0,0,0-.09,1.07c.17.44.52.63,1.81,1,.88.24,1,.35,1,.65a1,1,0,0,1-.75.85A1.87,1.87,0,0,1,59.92,61a1,1,0,0,1-.33-.7v-.17l-.15,0-.49.07-.35,0,0,.28A1.45,1.45,0,0,0,60.07,62a2.52,2.52,0,0,0,3-1.72,1,1,0,0,0-.24-.94c-.21-.23-.49-.37-1.52-.67-.82-.24-1-.33-1.12-.46s0-.52.24-.74a1.71,1.71,0,0,1,1.61-.09.74.74,0,0,1,.32.51c0,.1,0,.19,0,.21l.43,0,.45-.07a1.34,1.34,0,0,0,0-.67c-.17-.57-.79-.87-1.76-.85A4.56,4.56,0,0,0,60.93,56.46Zm7.65,0a2.83,2.83,0,0,0-1,.55l-.21.19,0-.26c.08-.46.13-.43-.37-.43s-.41,0-.43.08-.23,1.22-.49,2.6-.5,2.54-.5,2.59,0,.08.46.08.47,0,.49-.08.15-.74.3-1.57.32-1.59.37-1.74a1.64,1.64,0,0,1,1.39-1.27.81.81,0,0,1,.52,0,.87.87,0,0,1,.56.45,7.82,7.82,0,0,1-.32,2.42c-.18.92-.33,1.68-.33,1.7s.15,0,.48,0H70L70.36,60a11.43,11.43,0,0,0,.37-2.31c0-.43,0-.5-.11-.67A1.27,1.27,0,0,0,70,56.5,4,4,0,0,0,68.58,56.48Zm5.14,0a2.9,2.9,0,0,0-1.53.9,3.61,3.61,0,0,0-.86,1.8c-.34,1.7.32,2.73,1.81,2.84a2.87,2.87,0,0,0,2.79-1.46,1.39,1.39,0,0,0,.13-.27,1.53,1.53,0,0,0-.41-.06c-.23,0-.43-.07-.47-.07s-.11.05-.17.18a2.14,2.14,0,0,1-.82.76,1.08,1.08,0,0,1-.62.13,1.09,1.09,0,0,1-1-.33,1.25,1.25,0,0,1-.39-1v-.37h4l.05-.24a4.68,4.68,0,0,0,0-1.28,1.77,1.77,0,0,0-1.38-1.49A3.44,3.44,0,0,0,73.72,56.48Zm1.07.85a1,1,0,0,1,.5.53,1.93,1.93,0,0,1,.11.71l0,.11H73.91a8.89,8.89,0,0,1-1.46,0s.06-.17.13-.35a1.91,1.91,0,0,1,1.29-1A1.57,1.57,0,0,1,74.79,57.33Zm4-.85a2,2,0,0,0-1.52,1.16,1.09,1.09,0,0,0-.11.59.9.9,0,0,0,.32.82,3.24,3.24,0,0,0,1.36.55l.94.3c.37.18.39.53.07.9a1.45,1.45,0,0,1-.39.3c-.21.11-.26.11-.75.11a1.37,1.37,0,0,1-.69-.09.88.88,0,0,1-.49-.83v-.17l-.15,0-.5.07-.32,0,0,.31a1.34,1.34,0,0,0,1.12,1.35,5.56,5.56,0,0,0,1.63,0,2.09,2.09,0,0,0,1.72-2,1,1,0,0,0-.47-.78A8.49,8.49,0,0,0,79,58.53c-.54-.15-.78-.26-.84-.44-.15-.39.23-.78.88-.89s1.27.13,1.33.66c0,.19,0,.19.15.17L81,58a2.45,2.45,0,0,0,.35-.06,2.22,2.22,0,0,0-.15-.81,1.43,1.43,0,0,0-1-.63A5.62,5.62,0,0,0,78.83,56.48Zm5,0a2.09,2.09,0,0,0-1.22.68,1.34,1.34,0,0,0-.41,1,.79.79,0,0,0,.11.59c.19.37.47.52,1.44.78A3.38,3.38,0,0,1,85,60c.31.33-.08,1-.7,1.13a2.1,2.1,0,0,1-1.23-.06.81.81,0,0,1-.45-.68c0-.15,0-.26,0-.26s-.22,0-.48.07l-.47.06,0,.26A1.46,1.46,0,0,0,83.13,62a2.52,2.52,0,0,0,3-1.72A1.05,1.05,0,0,0,85.48,59c-.13-.07-.63-.22-1.12-.37-1-.33-1.18-.39-1.18-.72s.28-.54.62-.65a2.41,2.41,0,0,1,1-.07.73.73,0,0,1,.66.66c0,.1,0,.19,0,.19l.45-.06a3.53,3.53,0,0,1,.45-.07s0-.11,0-.24c0-.67-.36-1.07-1.14-1.24A8,8,0,0,0,83.84,56.48Zm9.87,0a2,2,0,0,0-.92.51c-.22.17-.24.19-.22.1a5.11,5.11,0,0,0,.11-.5s-.11,0-.43,0h-.43l-.52,2.66c-.28,1.46-.51,2.65-.51,2.68a1.48,1.48,0,0,0,.47,0h.47L92,60.34c.17-.89.34-1.72.4-1.87A1.64,1.64,0,0,1,94,57.31a.88.88,0,0,1,.8.35c.17.26.15.52-.24,2.46-.17.94-.34,1.72-.34,1.76s0,.07.45.07.47,0,.49-.07.67-3.39.71-3.72a1.39,1.39,0,0,0-.34-1.33,1.41,1.41,0,0,0-1.1-.35A1.46,1.46,0,0,0,93.71,56.5Zm5.33,0a2.23,2.23,0,0,0-.92.51c-.15.13-.24.17-.22.13a4.72,4.72,0,0,0,.11-.57s-.19,0-.43,0h-.43l-.49,2.66c-.28,1.46-.52,2.65-.52,2.67a1.14,1.14,0,0,0,.47,0h.48l.28-1.42c.15-.78.3-1.57.34-1.74a1.78,1.78,0,0,1,.9-1.31c.78-.39,1.55-.17,1.66.44a1.65,1.65,0,0,1,0,.43c0,.31-.63,3.4-.67,3.51s0,.07.45.07.47,0,.5-.07.64-3.35.71-3.68a1.72,1.72,0,0,0,0-.89.63.63,0,0,0-.28-.44,1.51,1.51,0,0,0-1.11-.37A1.8,1.8,0,0,0,99,56.5Zm5,0a2.85,2.85,0,0,0-1.48.83,3.61,3.61,0,0,0-.95,2,4,4,0,0,0,0,1.44,1.87,1.87,0,0,0,1.18,1.16,3.29,3.29,0,0,0,1.59,0,3,3,0,0,0,1.89-1.55,4.62,4.62,0,0,0,.39-2.55,1.85,1.85,0,0,0-1.38-1.33A4.64,4.64,0,0,0,104.05,56.48Zm1,.81a1.37,1.37,0,0,1,.65.61c.08.15.08.26.08.7a3,3,0,0,1-.73,2.07,1.55,1.55,0,0,1-1.18.54.81.81,0,0,1-.65-.13c-.49-.26-.66-.63-.62-1.37a2.81,2.81,0,0,1,1-2.16A1.53,1.53,0,0,1,105,57.29Zm9.31-.85a2.4,2.4,0,0,0-2,1.31,1.7,1.7,0,0,0-.15.34,5.75,5.75,0,0,0,.84.11c.06,0,.11,0,.17-.17a1.78,1.78,0,0,1,.65-.68,1.75,1.75,0,0,1,1.8.22c.07.09.09.18.09.44a1.65,1.65,0,0,1,0,.41c-.07.11-.54.22-1.47.35a5.29,5.29,0,0,0-1.54.35,1.87,1.87,0,0,0-1.08,1.24,1.21,1.21,0,0,0,1.1,1.63,3.46,3.46,0,0,0,2.34-.58l.22-.16v.24c0,.44,0,.42.53.42s.5,0,.48-.09c-.13-.48-.13-.68.23-2.57a5.92,5.92,0,0,0,.22-2,1.16,1.16,0,0,0-1-.79A6.63,6.63,0,0,0,114.35,56.44Zm1.1,3.31a1.77,1.77,0,0,1-.5,1,2,2,0,0,1-1.46.56.94.94,0,0,1-.52-.1c-.58-.31-.45-1.09.24-1.4a8.08,8.08,0,0,1,1-.22l1.08-.21c.17-.05.25-.07.27-.05A4.13,4.13,0,0,0,115.45,59.75Zm7-3.27A3.33,3.33,0,0,0,120,59.77a2.06,2.06,0,0,0,.86,2A3,3,0,0,0,125,59.84a4.42,4.42,0,0,0,.19-2,1.78,1.78,0,0,0-1.33-1.36A4,4,0,0,0,122.43,56.48Zm1.06.83a1.33,1.33,0,0,1,.71,1,3.82,3.82,0,0,1-.6,2.22,2.2,2.2,0,0,1-.86.61,1.86,1.86,0,0,1-1.1,0,1.29,1.29,0,0,1-.54-.59,3.23,3.23,0,0,1,.34-2.37A1.71,1.71,0,0,1,123.49,57.31Zm4.47-.85a1.72,1.72,0,0,0-.8.59c-.17.2-.17.2-.08-.2,0-.15.06-.28.06-.3a1.65,1.65,0,0,0-.43,0c-.24,0-.43,0-.43,0s-.21,1.2-.49,2.61-.5,2.62-.5,2.66.07.06.48.06h.47l.23-1.24a14,14,0,0,1,.54-2.35,1.81,1.81,0,0,1,.65-.81,1.17,1.17,0,0,1,1.05.09,4.68,4.68,0,0,0,.5-.85s-.11-.08-.26-.15a1,1,0,0,0-.56-.13A1.24,1.24,0,0,0,128,56.46Zm-89.61.18s-.23,1.22-.49,2.59-.5,2.55-.5,2.59,0,.09.46.09.47,0,.49-.07.24-1.2.5-2.59.49-2.55.51-2.61,0-.09-.45-.09S38.38,56.55,38.35,56.64Zm15.93-.09s-.15.8-.34,1.78a10.58,10.58,0,0,0-.34,2.29c0,.46,0,.55.08.68a1.59,1.59,0,0,0,1.57.69,2.49,2.49,0,0,0,1.51-.65c.17-.15.19-.15.1.22a2,2,0,0,1-.06.28,1.65,1.65,0,0,0,.43,0h.43l.51-2.65c.28-1.46.52-2.66.5-2.68a2,2,0,0,0-.47,0h-.48l-.28,1.41a8,8,0,0,1-.56,2.31c-.42.89-1.74,1.22-2.23.57-.07-.11-.09-.18-.09-.53a13.29,13.29,0,0,1,.33-2.07c.17-.91.32-1.67.32-1.67s-.22,0-.47,0A3.15,3.15,0,0,1,54.28,56.55Zm10.3.19c0,.11-.26,1.29-.49,2.62s-.48,2.44-.48,2.46,0,.06.48.06l.47,0,.49-2.52c.26-1.4.5-2.6.52-2.66l0-.15h-.94Zm42.65-.06c0,.06.24,1.26.52,2.68l.5,2.55h.9l1.52-2.66,1.53-2.66-.47,0a2.73,2.73,0,0,0-.52,0s-1.81,3.23-2.08,3.75l-.22.39,0-.2c0-.3-.62-3.81-.64-3.89s-.09-.07-.52-.07h-.5Z" transform="translate(0 0)"/></svg>